HIERARCHY
ROOT Hips
{
	OFFSET -3.958830 18.904000 13.208200
	CHANNELS 6 Xposition Yposition Zposition Zrotation Yrotation Xrotation 
	JOINT LHipJoint
	{
		OFFSET 0.000000 0.000000 0.000000
		CHANNELS 3 Zrotation Yrotation Xrotation
		JOINT LeftUpLeg
		{
			OFFSET 1.800000 -1.400000 0.085000
			CHANNELS 3 Zrotation Yrotation Xrotation
			JOINT LeftLeg
			{
				OFFSET 2.215000 -6.000000 0.000000
				CHANNELS 3 Zrotation Yrotation Xrotation
				JOINT LeftFoot
				{
					OFFSET 2.500000 -6.900000 0.000000
					CHANNELS 3 Zrotation Yrotation Xrotation
					JOINT LeftToeBase
					{
						OFFSET 0.200000 -0.500000 1.950000
						CHANNELS 3 Zrotation Yrotation Xrotation
						End Site
						{
							OFFSET 0.000000 0.000000 0.000000
						}
					}
				}
			}
		}
	}
	JOINT RHipJoint
	{
		OFFSET 0.000000 0.000000 0.000000
		CHANNELS 3 Zrotation Yrotation Xrotation
		JOINT RightUpLeg
		{
			OFFSET -1.800000 -1.400000 0.085000
			CHANNELS 3 Zrotation Yrotation Xrotation
			JOINT RightLeg
			{
				OFFSET -2.215000 -6.000000 0.000000
				CHANNELS 3 Zrotation Yrotation Xrotation
				JOINT RightFoot
				{
					OFFSET -2.500000 -6.900000 0.000000
					CHANNELS 3 Zrotation Yrotation Xrotation
					JOINT RightToeBase
					{
						OFFSET -0.200000 -0.500000 1.950000
						CHANNELS 3 Zrotation Yrotation Xrotation
						End Site
						{
							OFFSET 0.000000 0.000000 0.000000
						}
					}
				}
			}
		}
	}
	JOINT LowerBack
	{
		OFFSET 0.000000 0.000000 0.000000
		CHANNELS 3 Zrotation Yrotation Xrotation
		JOINT Spine
		{
			OFFSET -0.087000 1.940000 -0.288900
			CHANNELS 3 Zrotation Yrotation Xrotation
			JOINT Spine1
			{
				OFFSET 0.000000 1.950000 0.060000
				CHANNELS 3 Zrotation Yrotation Xrotation
				JOINT Neck
				{
					OFFSET 0.000000 0.000000 0.000000
					CHANNELS 3 Zrotation Yrotation Xrotation
					JOINT Neck1
					{
						OFFSET 0.000000 1.600000 0.340000
						CHANNELS 3 Zrotation Yrotation Xrotation
						JOINT Head
						{
							OFFSET 0.000000 1.667000 -0.240000
							CHANNELS 3 Zrotation Yrotation Xrotation
							End Site
							{
								OFFSET 0.000000 0.000000 0.000000
							}
						}
					}
				}
				JOINT LeftShoulder
				{
					OFFSET 0.000000 0.000000 0.000000
					CHANNELS 3 Zrotation Yrotation Xrotation
					JOINT LeftArm
					{
						OFFSET 2.700000 1.550000 -0.730000
						CHANNELS 3 Zrotation Yrotation Xrotation
						JOINT LeftForeArm
						{
							OFFSET 5.450000 0.000000 0.000000
							CHANNELS 3 Zrotation Yrotation Xrotation
							JOINT LeftHand
							{
								OFFSET 3.450000 0.000000 0.000000
								CHANNELS 3 Zrotation Yrotation Xrotation
								JOINT LeftHandIndex1
								{
									OFFSET 0.750000 0.000000 0.000000
									CHANNELS 3 Zrotation Yrotation Xrotation
									End Site
									{
										OFFSET 0.000000 0.000000 0.000000
									}
								}
							}
						}
					}
				}
				JOINT RightShoulder
				{
					OFFSET 0.000000 0.000000 0.000000
					CHANNELS 3 Zrotation Yrotation Xrotation
					JOINT RightArm
					{
						OFFSET -2.700000 1.550000 -0.730000
						CHANNELS 3 Zrotation Yrotation Xrotation
						JOINT RightForeArm
						{
							OFFSET -5.450000 0.000000 0.000000
							CHANNELS 3 Zrotation Yrotation Xrotation
							JOINT RightHand
							{
								OFFSET -3.450000 0.000000 0.000000
								CHANNELS 3 Zrotation Yrotation Xrotation
								JOINT RightHandIndex1
								{
									OFFSET -0.750000 0.000000 0.000000
									CHANNELS 3 Zrotation Yrotation Xrotation
									End Site
									{
										OFFSET 0.000000 0.000000 0.000000
									}
								}
							}
						}
					}
				}
			}
		}
	}
}
MOTION
Frames: 6
Frame Time: 0.016667
-0.553950 17.484790 -5.622700 -168.183747 38.478741 169.816950 -15.113037 12.835978 2.269621 0.703785 0.626894 0.814387 1.953001 5.000006 19.708048 -0.210297 4.723626 3.032704 -0.068740 -0.431950 -0.105290 18.333476 -9.670092 5.444987 -7.605694 10.677603 -33.615605 48.505988 -25.673962 36.710635 -1.913017 -9.973112 0.897966 -0.249280 0.307470 0.154820 -4.100047 -1.202445 -8.599081 14.480056 -5.652695 33.545182 -3.272678 -1.852567 14.270632 -0.809799 5.377287 -19.783727 7.615016 -21.696407 39.995031 18.573800 -26.256020 -16.705690 -0.744647 -36.416108 10.870750 -13.179432 -6.211425 -14.047922 -34.310101 -79.672520 20.669318 -2.831715 3.774050 0.625200 -0.135240 -0.007990 0.018470 1.174741 34.763188 13.197772 18.543310 13.035812 -22.366588 -14.527343 70.150279 -14.686821 1.631144 -1.346803 -0.238110 0.280910 0.330560 -0.019660 
-0.633930 17.513050 -5.615690 -167.044304 48.132323 171.662111 -15.235548 12.740438 2.299385 0.958760 0.902551 1.229164 0.392821 5.235311 17.161799 -0.193080 4.533472 3.109252 -0.007970 -0.317390 -0.056340 18.241060 -9.480893 5.634127 -7.218482 12.273660 -35.685389 49.180763 -27.133098 39.437646 -2.095658 -10.442287 0.803365 -0.205640 0.268450 0.119370 -4.177859 -1.194323 -8.707969 13.616795 -5.262295 34.494189 -3.864795 -1.489109 13.662832 -0.386676 5.617295 -20.053861 8.337240 -20.795411 42.042335 18.453610 -24.496600 -18.358610 -1.073414 -37.207487 10.623738 -10.645841 -5.010983 -14.478176 -19.655080 -74.331474 9.443226 -2.788256 3.576834 0.636930 -0.166290 0.044590 0.033430 0.652087 35.903969 12.382651 17.281884 18.470489 -20.954238 -13.013716 64.591221 -11.662613 1.653484 -1.320357 -0.217320 0.323090 0.272390 -0.014550 
-0.694890 17.553520 -5.740600 -160.849389 60.179304 178.231398 -15.333734 12.597806 2.333347 2.076081 1.409519 3.549617 0.101973 4.858260 11.537144 -0.100851 4.232368 3.219864 0.145980 -0.130910 0.037280 18.188864 -9.252051 5.755274 -8.484726 12.426006 -37.434342 52.834879 -30.436581 41.268579 -2.402749 -11.155854 0.615786 -0.151940 0.146000 0.143660 -4.221415 -1.364185 -8.887138 14.488084 -6.204798 34.613332 -4.035721 -2.625240 13.132687 0.158006 5.807366 -20.326567 8.929416 -21.372148 44.142356 17.772100 -24.438440 -19.985890 -2.785928 -37.691709 11.089569 -8.547879 -3.156407 -13.916377 -11.641100 -69.002418 4.502118 -2.688613 3.597332 0.640140 -0.244500 0.143960 0.091550 1.220000 36.376333 11.196564 16.368922 23.777773 -18.418308 -15.601697 56.182942 -10.044849 1.775085 -1.297186 -0.109770 0.258530 0.144630 0.005140 
-0.719100 17.612690 -5.855080 -142.060743 73.514870 -163.043202 -15.097927 12.596730 2.441444 4.073867 1.742081 6.021149 -1.942783 5.074311 6.547331 0.132506 4.353430 3.200272 0.083550 -0.210520 0.044730 18.485810 -8.817153 5.737515 -9.067078 14.092400 -36.848410 57.608687 -30.642550 39.188824 -2.466483 -11.061704 0.679297 -0.280590 0.046420 0.124470 -3.708964 -1.969071 -9.245778 16.114021 -6.892337 38.089178 -3.841267 -2.319687 9.497528 0.071600 3.182426 -21.129009 3.070078 -19.441890 48.188984 18.258410 -25.311390 -19.801040 -5.303938 -36.130779 12.946597 -11.433872 4.557306 -14.451295 -9.877521 -75.106579 2.783088 -2.591027 3.635674 0.670360 -0.320280 0.200320 0.064930 3.712004 37.359279 10.614418 15.025113 23.785246 -18.260135 -14.841086 57.324867 -9.030165 1.912416 -1.236809 -0.061380 0.172980 0.105490 0.001640 
-0.674280 17.619970 -5.974950 -76.127690 79.051684 -94.575018 -15.136353 13.301585 2.492534 5.998163 1.571927 4.931362 -3.913194 5.251379 3.396749 0.181951 4.701694 3.131743 0.046960 -0.246010 -0.030980 18.571554 -7.372184 5.678846 -10.298594 15.275376 -39.343798 62.694806 -32.321196 38.221813 -2.559673 -11.358288 0.642904 -0.285430 0.148510 0.142780 -3.743292 -0.639479 -9.680830 19.735370 -6.986955 36.325737 -5.332698 -1.620464 8.276599 0.031974 2.774428 -19.731192 2.100480 -18.972098 47.040554 16.876590 -25.837950 -17.162520 -6.953055 -34.610218 12.417058 -8.966438 4.393063 -12.326035 -18.647440 -75.113218 9.965230 -2.752346 3.643791 0.617110 -0.247190 0.144310 0.108630 5.441721 36.143850 9.792000 16.391651 25.723530 -15.725703 -9.201696 56.073507 -5.790870 1.920432 -1.283095 -0.078040 0.204400 0.130340 0.040670 
-0.625610 17.636320 -6.085910 -33.820686 71.632510 -51.009302 -16.064864 12.788586 2.338950 7.601243 1.469196 5.327677 -5.522893 5.319057 1.974023 0.257922 4.795320 3.112692 0.098610 -0.144640 -0.047310 17.720145 -7.427466 5.701680 -11.806345 15.069757 -41.423761 67.692915 -33.677421 36.583058 -2.626988 -11.517234 0.638189 -0.231070 0.178600 0.155270 -4.911595 -0.643141 -9.871782 22.253704 -7.634010 36.240133 -7.141204 -1.182975 7.743389 0.308102 2.639322 -18.554304 1.553721 -17.726178 46.228890 15.297580 -24.508620 -15.791410 -9.307341 -34.511331 11.289358 -2.554625 2.252530 -10.033189 -27.650967 -70.790954 16.975887 -2.851652 3.723304 0.541460 -0.204310 0.130090 0.153710 7.367206 35.797943 9.474795 16.133497 25.007679 -15.361546 -2.555343 59.546189 -3.243403 1.904023 -1.443778 -0.036860 0.206220 0.095680 0.081260 
